<?xml version="1.0" encoding="utf-8"?><svg width="24" height="240" viewBox="0 0 24 240" xmlns="http://www.w3.org/2000/svg" xmlns:xlink="http://www.w3.org/1999/xlink"><view id="barcode" viewBox="0 0 24 24"/><svg width="24" height="24" viewBox="0 0 32 32" id="barcode-" xmlns="http://www.w3.org/2000/svg"><title>barcode</title><path d="M0 4h4v20H0zm6 0h2v20H6zm4 0h2v20h-2zm6 0h2v20h-2zm8 0h2v20h-2zm6 0h2v20h-2zM20 4h1v20h-1zm-6 0h1v20h-1zm13 0h1v20h-1zM0 26h2v2H0zm6 0h2v2H6zm4 0h2v2h-2zm10 0h2v2h-2zm10 0h2v2h-2zm-6 0h4v2h-4zm-10 0h4v2h-4z"/></svg><view id="camera" viewBox="0 24 24 24"/><svg width="24" height="24" viewBox="0 0 32 32" id="camera-" y="24" xmlns="http://www.w3.org/2000/svg"><title>camera</title><path d="M9.5 19a6.5 6.5 0 1 0 13 0 6.5 6.5 0 0 0-13 0zM30 8h-7c-.5-2-1-4-3-4h-8c-2 0-2.5 2-3 4H2c-1.1 0-2 .9-2 2v18c0 1.1.9 2 2 2h28c1.1 0 2-.9 2-2V10c0-1.1-.9-2-2-2zM16 27.875c-4.902 0-8.875-3.973-8.875-8.875s3.973-8.875 8.875-8.875 8.875 3.973 8.875 8.875-3.973 8.875-8.875 8.875zM30 14h-4v-2h4v2z"/></svg><view id="cart" viewBox="0 48 24 24"/><svg width="24" height="24" viewBox="0 0 32 32" id="cart-" y="48" xmlns="http://www.w3.org/2000/svg"><title>cart</title><path d="M12 29a3 3 0 1 1-6 0 3 3 0 0 1 6 0zM32 29a3 3 0 1 1-6 0 3 3 0 0 1 6 0zM32 16V4H8a2 2 0 0 0-2-2H0v2h4l1.502 12.877A4 4 0 0 0 8 24h24v-2H8a2 2 0 0 1-2-2v-.02L32 16z"/></svg><view id="github" viewBox="0 72 24 24"/><svg width="24" height="24" viewBox="0 0 32 32" id="github-" y="72" xmlns="http://www.w3.org/2000/svg"><title>github</title><path d="M16 .395c-8.836 0-16 7.163-16 16 0 7.069 4.585 13.067 10.942 15.182.8.148 1.094-.347 1.094-.77 0-.381-.015-1.642-.022-2.979-4.452.968-5.391-1.888-5.391-1.888-.728-1.849-1.776-2.341-1.776-2.341-1.452-.993.11-.973.11-.973 1.606.113 2.452 1.649 2.452 1.649 1.427 2.446 3.743 1.739 4.656 1.33.143-1.034.558-1.74 1.016-2.14-3.554-.404-7.29-1.777-7.29-7.907 0-1.747.625-3.174 1.649-4.295-.166-.403-.714-2.03.155-4.234 0 0 1.344-.43 4.401 1.64a15.353 15.353 0 0 1 4.005-.539c1.359.006 2.729.184 4.008.539 3.054-2.07 4.395-1.64 4.395-1.64.871 2.204.323 3.831.157 4.234 1.026 1.12 1.647 2.548 1.647 4.295 0 6.145-3.743 7.498-7.306 7.895.574.497 1.085 1.47 1.085 2.963 0 2.141-.019 3.864-.019 4.391 0 .426.288.925 1.099.768C27.421 29.457 32 23.462 32 16.395c0-8.837-7.164-16-16-16z"/></svg><view id="hammer" viewBox="0 96 24 24"/><svg width="24" height="24" viewBox="0 0 32 32" id="hammer-" y="96" xmlns="http://www.w3.org/2000/svg"><title>hammer</title><path d="M31.562 25.905l-9.423-9.423a1.505 1.505 0 0 0-2.121 0l-.707.707-5.75-5.75L23 2H13L8.561 6.439 8.122 6H6.001v2.121l.439.439-6.439 6.439 5 5 6.439-6.439 5.75 5.75-.707.707a1.505 1.505 0 0 0 0 2.121l9.423 9.423a1.505 1.505 0 0 0 2.121 0l3.535-3.535a1.505 1.505 0 0 0 0-2.121z"/></svg><view id="home" viewBox="0 120 24 24"/><svg width="24" height="24" viewBox="0 0 32 32" id="home-" y="120" xmlns="http://www.w3.org/2000/svg"><title>home</title><path d="M32 18.451L16 6.031 0 18.451v-5.064L16 .967l16 12.42zM28 18v12h-8v-8h-8v8H4V18l12-9z"/></svg><view id="paint-format" viewBox="0 144 24 24"/><svg width="24" height="24" viewBox="0 0 32 32" id="paint-format-" y="144" xmlns="http://www.w3.org/2000/svg"><title>paint-format</title><path d="M32 18V6h-6V4c0-1.1-.9-2-2-2H2C.9 2 0 2.9 0 4v6c0 1.1.9 2 2 2h22c1.1 0 2-.9 2-2V8h4v8H12v4h-1a1 1 0 0 0-1 1v10a1 1 0 0 0 1 1h4a1 1 0 0 0 1-1V21a1 1 0 0 0-1-1h-1v-2h18zM24 6H2V4h22v2z"/></svg><view id="pen" viewBox="0 168 24 24"/><svg width="24" height="24" viewBox="0 0 32 32" id="pen-" y="168" xmlns="http://www.w3.org/2000/svg"><title>pen</title><path d="M31.818 9.122L22.879.183c-.292-.292-.676-.226-.855.146l-1.199 2.497 8.35 8.35 2.497-1.199c.372-.178.438-.563.146-.855zM19.231 4.231L11 4.917c-.547.068-1.002.184-1.159.899l-.001.002C7.608 16.539 0 27.001 0 27.001l1.793 1.793 8.5-8.5a3 3 0 1 1 1.414 1.414l-8.5 8.5L5 32.001s10.462-7.608 21.183-9.84l.002-.001c.714-.157.831-.612.898-1.159l.686-8.231-8.538-8.539z"/></svg><view id="pencil" viewBox="0 192 24 24"/><svg width="24" height="24" viewBox="0 0 32 32" id="pencil-" y="192" xmlns="http://www.w3.org/2000/svg"><title>pencil</title><path d="M27 0a5 5 0 0 1 4 8l-2 2-7-7 2-2c.836-.628 1.874-1 3-1zM2 23l-2 9 9-2 18.5-18.5-7-7L2 23zm20.362-11.638l-14 14-1.724-1.724 14-14 1.724 1.724z"/></svg><view id="video-camera" viewBox="0 216 24 24"/><svg width="24" height="24" viewBox="0 0 32 32" id="video-camera-" y="216" xmlns="http://www.w3.org/2000/svg"><title>video-camera</title><path d="M12 9a5 5 0 1 1 10.001.001A5 5 0 0 1 12 9zM0 9a5 5 0 1 1 10.001.001A5 5 0 0 1 0 9zm24 10v-3c0-1.1-.9-2-2-2H2c-1.1 0-2 .9-2 2v10c0 1.1.9 2 2 2h20c1.1 0 2-.9 2-2v-3l8 5V14l-8 5zm-4 5H4v-6h16v6z"/></svg></svg>